PathFileType  4	(X/Y/Z) C:\Users\hpl\Documents\MyRepositories\mocap-processing\Data\treadmill\Subject1\Edited\
DataRate	CameraRate	NumFrames	NumMarkers	Units	OrigDataRate	OrigDataStartFrame	OrigNumFrames
   50.0		   50.0		   9		     34		 mm	   50.0	      788	   3148
Frame#	Time	r_knee			r_shank(antsup)			r_ankle			r_calc			r_5meta			r_toe			L_knee			L_shank(ant_sup)			L_ankle			L_calc			L_5meta			L_toe			r_sh2			r_sh3			r_sh4			L_sh2			L_sh3			r_thigh1			r_thigh2			r_thigh3			r_thigh4			r_thigh5			L_thigh1			L_thigh2			L_thigh3			L_thigh4			r.ASIS			r.PSIS			L.ASIS			L.PSIS			C7			R_Shoulder			L_Shoulder			Sternum			
		X1	Y1	Z1	X2	Y2	Z2	X3	Y3	Z3	X4	Y4	Z4	X5	Y5	Z5	X6	Y6	Z6	X7	Y7	Z7	X8	Y8	Z8	X9	Y9	Z9	X10	Y10	Z10	X11	Y11	Z11	X12	Y12	Z12	X13	Y13	Z13	X14	Y14	Z14	X15	Y15	Z15	X16	Y16	Z16	X17	Y17	Z17	X18	Y18	Z18	X19	Y19	Z19	X20	Y20	Z20	X21	Y21	Z21	X22	Y22	Z22	X23	Y23	Z23	X24	Y24	Z24	X25	Y25	Z25	X26	Y26	Z26	X27	Y27	Z27	X28	Y28	Z28	X29	Y29	Z29	X30	Y30	Z30	X31	Y31	Z31	X32	Y32	Z32	X33	Y33	Z33	X34	Y34	Z34	

788	15.74000	721.787	556.103	-414.529	694.031	466.034	-408.532	451.504	169.887	-439.675	356.249	174.195	-489.817	505.500	46.789	-416.736	561.982	57.437	-475.309	987.171	564.729	-710.361	1046.893	459.086	-703.770	1059.288	105.953	-689.965	987.873	67.190	-637.378	1222.933	89.672	-653.646	1188.445	47.224	-709.827	628.839	365.408	-414.446	629.014	504.706	-408.201	559.453	411.987	-412.102	956.255	453.683	-720.949	977.851	332.893	-715.826	848.256	865.485	-390.511	836.129	751.105	-394.828	785.235	724.166	-388.668	735.256	871.783	-385.464	727.353	756.421	-401.666	965.147	837.144	-741.398	1015.156	708.156	-729.428	852.701	796.607	-748.492	907.441	672.932	-727.599	901.716	1063.246	-434.765	716.537	1087.615	-536.624	914.574	1078.658	-688.808	722.626	1086.785	-619.205	813.425	1582.625	-565.114	876.982	1544.024	-405.094	853.846	1531.403	-753.252	950.142	1497.596	-575.162
789	15.76000	745.095	552.650	-412.076	711.780	464.340	-406.500	451.182	184.356	-438.146	359.482	202.215	-489.924	486.819	52.342	-416.888	544.540	56.218	-475.662	987.038	565.846	-713.441	1042.736	457.911	-706.227	1039.760	105.773	-689.024	965.025	68.522	-637.437	1202.089	82.647	-651.268	1166.345	43.926	-709.259	640.070	368.226	-412.731	649.607	507.275	-407.439	573.940	419.300	-412.121	952.520	455.763	-724.930	969.964	334.130	-719.328	858.323	865.929	-394.049	850.388	751.748	-395.489	800.455	722.113	-390.126	744.991	868.198	-390.104	741.850	752.163	-402.907	968.595	842.581	-743.844	1020.860	714.311	-732.056	856.891	799.604	-753.488	913.126	676.813	-731.557	905.252	1065.548	-437.987	719.807	1089.024	-538.734	916.482	1080.986	-691.666	724.715	1089.053	-621.549	815.094	1584.142	-569.600	878.473	1546.263	-409.434	856.630	1532.909	-757.411	951.982	1499.544	-579.082
790	15.78000	770.741	548.958	-409.858	735.111	463.237	-404.462	459.477	199.751	-437.088	373.436	233.702	-489.747	471.878	62.932	-417.458	528.939	57.749	-476.172	984.225	567.999	-717.632	1037.826	456.761	-709.383	1017.751	105.723	-688.237	941.105	69.409	-637.612	1179.121	79.113	-649.940	1142.904	42.941	-709.121	657.395	371.624	-410.763	675.918	509.957	-408.034	594.704	426.924	-412.757	947.718	458.371	-729.146	959.575	336.138	-721.535	868.848	866.347	-397.000	866.297	752.304	-395.647	817.749	719.843	-390.585	755.252	863.421	-394.585	758.108	747.074	-404.285	970.532	846.758	-747.477	1021.962	718.142	-736.220	859.189	804.869	-758.374	914.354	680.845	-736.457	909.222	1068.055	-441.942	722.171	1090.603	-539.729	916.953	1084.591	-694.870	726.060	1091.443	-622.611	815.086	1587.593	-573.948	879.504	1548.729	-413.535	859.896	1534.651	-761.309	953.183	1501.672	-582.608
791	15.80000	797.422	545.276	-408.987	761.727	462.162	-403.680	473.518	216.986	-436.366	396.159	265.992	-489.194	463.740	79.670	-417.915	519.679	65.517	-475.928	981.558	569.172	-720.622	1028.788	455.093	-713.109	993.828	105.549	-688.773	916.565	69.786	-638.247	1155.333	77.271	-650.198	1118.188	42.242	-710.050	679.268	375.130	-409.636	705.383	512.179	-408.121	619.639	433.910	-412.940	938.924	460.482	-730.937	945.691	337.781	-722.758	877.956	867.027	-398.888	881.890	753.397	-395.258	835.521	717.984	-389.336	764.784	857.457	-398.326	774.156	740.564	-403.905	969.275	847.708	-751.933	1019.243	718.569	-740.387	857.955	807.439	-762.461	911.079	682.591	-739.878	910.078	1069.629	-445.216	723.403	1091.427	-539.938	917.117	1088.453	-698.738	726.905	1093.126	-622.723	816.495	1588.297	-578.268	879.989	1550.844	-417.371	863.004	1536.198	-764.671	953.645	1503.243	-585.695
792	15.82000	824.014	543.606	-408.301	788.885	463.013	-402.681	489.624	232.556	-436.570	421.107	292.062	-489.606	462.524	97.266	-419.898	517.966	77.592	-476.747	972.878	568.393	-722.777	1017.569	452.943	-715.738	969.908	105.449	-688.804	891.927	70.351	-638.426	1131.311	76.170	-650.375	1093.774	42.058	-710.710	702.935	379.559	-409.419	734.772	515.549	-406.446	645.505	440.898	-413.049	927.226	461.876	-732.095	929.480	338.538	-723.747	885.103	868.471	-399.735	895.999	755.581	-394.559	852.046	716.971	-387.193	772.823	852.079	-401.527	789.471	735.787	-404.757	967.075	847.128	-757.097	1012.874	716.453	-744.862	854.432	808.248	-763.221	905.522	683.816	-741.116	911.043	1070.623	-448.384	723.731	1091.363	-540.254	917.181	1091.527	-702.443	727.183	1094.162	-623.083	815.974	1589.992	-581.586	879.588	1552.741	-420.438	865.001	1537.596	-767.425	953.578	1504.965	-588.256
793	15.84000	850.027	545.839	-406.617	815.883	466.196	-401.485	508.610	246.152	-437.604	440.990	309.092	-488.257	477.895	111.108	-424.737	532.321	91.859	-482.802	962.540	567.842	-724.527	1004.693	451.003	-716.750	945.752	105.767	-688.461	867.328	70.840	-638.210	1106.894	74.961	-650.665	1068.986	41.856	-711.021	727.119	385.979	-409.321	763.722	520.768	-405.008	672.189	449.416	-412.133	915.090	462.680	-734.099	913.626	339.637	-724.948	891.413	871.793	-400.547	908.471	759.876	-393.743	865.931	719.140	-387.204	780.308	849.396	-404.598	803.811	734.663	-406.190	962.115	846.226	-761.349	1004.896	714.604	-749.106	848.160	809.914	-763.693	896.792	684.250	-742.553	910.924	1071.513	-451.454	723.238	1090.893	-541.558	916.962	1093.626	-705.661	726.593	1095.302	-624.346	815.145	1592.306	-584.369	878.172	1554.767	-422.683	865.782	1539.032	-769.794	952.961	1506.988	-590.252
794	15.86000	874.429	552.108	-403.752	843.388	470.998	-400.679	532.662	255.514	-440.296	461.333	318.742	-486.412	506.563	119.673	-431.812	559.883	104.588	-491.847	950.378	567.806	-725.506	990.889	449.728	-717.102	921.783	106.198	-688.091	842.773	71.841	-637.977	1082.726	74.030	-650.506	1044.184	41.545	-711.129	752.457	392.966	-409.203	792.501	526.584	-404.592	699.183	457.880	-410.696	901.533	463.304	-735.681	896.865	340.248	-726.106	897.956	876.755	-401.063	920.005	766.001	-393.278	879.173	723.518	-386.109	788.022	849.385	-407.335	817.201	735.833	-408.131	955.194	845.917	-763.672	995.420	713.514	-751.723	841.750	812.588	-764.124	886.625	685.979	-743.211	911.864	1074.335	-453.798	722.325	1091.197	-543.632	916.084	1095.433	-708.377	726.056	1096.678	-625.809	814.030	1595.009	-586.929	875.878	1557.309	-424.335	865.639	1540.767	-771.818	951.880	1509.716	-591.742
795	15.88000	898.687	559.136	-402.358	870.605	477.003	-400.435	560.059	260.262	-443.718	484.351	321.016	-486.214	541.520	122.955	-439.520	595.058	113.401	-501.376	936.912	567.981	-725.981	974.613	448.685	-717.409	897.815	106.693	-687.834	818.153	72.243	-637.101	1058.250	73.333	-650.531	1019.369	41.420	-711.157	779.805	398.807	-409.647	819.388	532.443	-403.232	726.205	463.297	-408.559	885.280	463.737	-735.932	878.162	341.371	-726.571	905.382	883.465	-401.140	931.380	772.754	-392.050	892.267	729.043	-385.882	795.717	850.814	-408.741	830.567	738.843	-410.010	950.238	846.745	-764.362	985.894	712.643	-752.890	835.819	816.061	-765.442	877.003	687.562	-744.227	911.524	1078.378	-456.137	721.315	1093.327	-545.708	915.131	1097.610	-710.887	724.826	1098.982	-627.594	812.687	1598.198	-589.114	873.092	1560.703	-425.691	864.910	1543.260	-773.551	950.430	1513.125	-592.937
796	15.90000	922.009	567.167	-401.818	896.852	483.267	-400.657	590.510	260.118	-447.627	510.882	316.858	-488.557	580.807	121.850	-446.359	635.516	117.744	-507.225	922.005	567.877	-726.095	956.128	447.963	-717.775	873.425	107.039	-687.463	793.417	73.201	-637.921	1033.550	72.799	-650.384	994.350	41.325	-711.122	808.309	402.947	-411.107	843.951	537.407	-400.022	752.803	465.800	-406.546	866.977	464.783	-735.716	857.811	342.385	-726.308	910.842	890.562	-400.970	941.845	781.025	-391.130	904.058	736.036	-385.646	802.876	853.022	-409.865	843.306	742.791	-411.435	944.890	847.235	-763.465	977.227	712.267	-751.607	830.440	818.845	-767.432	866.799	690.235	-744.785	910.304	1082.720	-458.243	720.571	1097.448	-547.083	913.660	1100.087	-713.145	724.060	1102.799	-629.126	811.230	1601.678	-591.203	870.221	1564.600	-426.999	863.837	1546.522	-775.162	948.825	1516.901	-593.939
